<svg xmlns="http://www.w3.org/2000/svg" xmlns:xlink="http://www.w3.org/1999/xlink" width="60" zoomAndPan="magnify" viewBox="0 0 45 44.999999" height="60" preserveAspectRatio="xMidYMid meet" version="1.0"><defs><filter x="0%" y="0%" width="100%" height="100%" id="e3bfb8a3dc"><feColorMatrix values="0 0 0 0 1 0 0 0 0 1 0 0 0 0 1 0 0 0 1 0" color-interpolation-filters="sRGB"/></filter><mask id="cf843b9e2d"><g filter="url(#e3bfb8a3dc)"><rect x="-4.5" width="54" fill="#000000" y="-4.5" height="53.999999" fill-opacity="0.6"/></g></mask><clipPath id="3f2d48b0eb"><path d="M 0.320312 0.640625 L 15.199219 0.640625 L 15.199219 1.839844 L 0.320312 1.839844 Z M 0.320312 0.640625 " clip-rule="nonzero"/></clipPath><clipPath id="4754f7b0fa"><rect x="0" width="16" y="0" height="2"/></clipPath><mask id="a1f59a091b"><g filter="url(#e3bfb8a3dc)"><rect x="-4.5" width="54" fill="#000000" y="-4.5" height="53.999999" fill-opacity="0.6"/></g></mask><clipPath id="9a3d2e0b10"><path d="M 0.320312 0 L 13.519531 0 L 13.519531 0.960938 L 0.320312 0.960938 Z M 0.320312 0 " clip-rule="nonzero"/></clipPath><clipPath id="78ee7baa16"><rect x="0" width="14" y="0" height="1"/></clipPath><mask id="e896cd16b0"><g filter="url(#e3bfb8a3dc)"><rect x="-4.5" width="54" fill="#000000" y="-4.5" height="53.999999" fill-opacity="0.6"/></g></mask><clipPath id="1c326ea94e"><path d="M 0.320312 0.121094 L 11.601562 0.121094 L 11.601562 1.320312 L 0.320312 1.320312 Z M 0.320312 0.121094 " clip-rule="nonzero"/></clipPath><clipPath id="c6702440a5"><rect x="0" width="12" y="0" height="2"/></clipPath></defs><rect x="-4.5" width="54" fill="#ffffff" y="-4.5" height="53.999999" fill-opacity="1"/><rect x="-4.5" width="54" fill="#000000" y="-4.5" height="53.999999" fill-opacity="1"/><path fill="#ffffff" d="M 16.871094 4.101562 L 36.191406 4.101562 C 37.203125 4.101562 38.03125 4.9375 38.03125 5.953125 L 38.03125 30.019531 C 38.03125 31.039062 37.203125 31.871094 36.191406 31.871094 L 16.871094 31.871094 C 15.859375 31.871094 15.03125 31.039062 15.03125 30.019531 L 15.03125 5.953125 C 15.03125 4.9375 15.859375 4.101562 16.871094 4.101562 Z M 16.871094 4.101562 " fill-opacity="0.25" fill-rule="nonzero"/><path fill="#ffffff" d="M 13.191406 8.269531 L 32.511719 8.269531 C 33.523438 8.269531 34.351562 9.101562 34.351562 10.121094 L 34.351562 34.1875 C 34.351562 35.203125 33.523438 36.039062 32.511719 36.039062 L 13.191406 36.039062 C 12.179688 36.039062 11.351562 35.203125 11.351562 34.1875 L 11.351562 10.121094 C 11.351562 9.101562 12.179688 8.269531 13.191406 8.269531 Z M 13.191406 8.269531 " fill-opacity="0.5" fill-rule="nonzero"/><path fill="#ffffff" d="M 9.511719 12.433594 L 30.671875 12.433594 C 31.683594 12.433594 32.511719 13.265625 32.511719 14.285156 L 32.511719 38.351562 C 32.511719 39.371094 31.683594 40.203125 30.671875 40.203125 L 9.511719 40.203125 C 8.5 40.203125 7.671875 39.371094 7.671875 38.351562 L 7.671875 14.285156 C 7.671875 13.265625 8.5 12.433594 9.511719 12.433594 Z M 9.511719 12.433594 " fill-opacity="1" fill-rule="nonzero"/><path fill="#cccccc" d="M 26.992188 12.433594 L 32.511719 17.523438 L 32.511719 12.433594 Z M 26.992188 12.433594 " fill-opacity="1" fill-rule="nonzero"/><path fill="#666666" d="M 26.992188 12.433594 L 26.992188 16.597656 C 26.992188 17.109375 27.40625 17.523438 27.914062 17.523438 L 32.511719 17.523438 Z M 26.992188 12.433594 " fill-opacity="1" fill-rule="nonzero"/><g mask="url(#cf843b9e2d)"><g transform="matrix(1, 0, 0, 1, 10, 20)"><g clip-path="url(#4754f7b0fa)"><g clip-path="url(#3f2d48b0eb)"><path stroke-linecap="round" transform="matrix(0.23, 0, 0, 0.231406, -6.007142, -17.748046)" fill="none" stroke-linejoin="miter" d="M 30.007277 81.996961 L 89.993692 81.996961 " stroke="#333333" stroke-width="3" stroke-opacity="1" stroke-miterlimit="4"/></g></g></g></g><g mask="url(#a1f59a091b)"><g transform="matrix(1, 0, 0, 1, 10, 24)"><g clip-path="url(#78ee7baa16)"><g clip-path="url(#9a3d2e0b10)"><path stroke-linecap="round" transform="matrix(0.23, 0, 0, 0.231406, -6.007142, -21.748046)" fill="none" stroke-linejoin="miter" d="M 30.007277 96.007765 L 81.994371 96.007765 " stroke="#333333" stroke-width="3" stroke-opacity="1" stroke-miterlimit="4"/></g></g></g></g><g mask="url(#e896cd16b0)"><g transform="matrix(1, 0, 0, 1, 10, 27)"><g clip-path="url(#c6702440a5)"><g clip-path="url(#1c326ea94e)"><path stroke-linecap="round" transform="matrix(0.23, 0, 0, 0.231406, -6.007142, -24.748046)" fill="none" stroke-linejoin="miter" d="M 30.007277 110.001688 L 73.99505 110.001688 " stroke="#333333" stroke-width="3" stroke-opacity="1" stroke-miterlimit="4"/></g></g></g></g></svg>